<svg width="16" height="16" viewBox="0 0 16 16" fill="none" xmlns="http://www.w3.org/2000/svg">
<g clip-path="url(#clip0_3450_46219)">
<path d="M12.6949 7.41118L7.70746 12.3986C6.72222 13.3839 5.12416 13.5394 4.04936 12.6532C2.81428 11.635 2.75299 9.81063 3.85608 8.70755L9.68264 2.88099C10.3002 2.26345 11.3043 2.1456 11.9784 2.69714C12.7562 3.33353 12.7986 4.47905 12.1057 5.17201L7.15591 10.1218C6.89664 10.381 6.47238 10.381 6.2131 10.1218C5.95383 9.86249 5.95383 9.43822 6.2131 9.17895L10.3379 5.05416C10.5312 4.86089 10.5312 4.54033 10.3379 4.34705C10.1446 4.15378 9.82406 4.15378 9.63079 4.34705L5.57199 8.40585C4.95445 9.02339 4.8366 10.0275 5.38815 10.7016C6.02454 11.4794 7.17006 11.5218 7.86302 10.8289L12.7326 5.95926C13.7179 4.97402 13.8734 3.37596 12.9872 2.30116C11.9737 1.07079 10.1446 1.0048 9.04153 2.10788L3.2574 7.89202C1.90447 9.24495 1.68291 11.4464 2.90384 12.9219C4.31334 14.6142 6.8165 14.7038 8.33442 13.1859L13.402 8.11829C13.5953 7.92501 13.5953 7.60446 13.402 7.41118C13.2087 7.21791 12.8882 7.21791 12.6949 7.41118Z" fill="#91B18E"/>
</g>
<defs>
<clipPath id="clip0_3450_46219">
<rect width="16" height="16" fill="white"/>
</clipPath>
</defs>
</svg>
