<svg width="24" height="24" viewBox="0 0 24 24" fill="none" xmlns="http://www.w3.org/2000/svg">
<path d="M17.5084 1.34171C17.964 0.886097 18.7027 0.886097 19.1583 1.34171L22.6583 4.84171C23.1139 5.29732 23.1139 6.03601 22.6583 6.49162L12.1583 16.9916C11.9395 17.2104 11.6428 17.3333 11.3333 17.3333H7.83333C7.189 17.3333 6.66667 16.811 6.66667 16.1667V12.6667C6.66667 12.3572 6.78958 12.0605 7.00838 11.8417L17.5084 1.34171ZM9 13.1499V15H10.8501L20.1834 5.66667L18.3333 3.81658L9 13.1499ZM2 5.66667C2 4.378 3.04467 3.33333 4.33333 3.33333H10.1667C10.811 3.33333 11.3333 3.85567 11.3333 4.5C11.3333 5.14433 10.811 5.66667 10.1667 5.66667H4.33333V19.6667H18.3333V13.8333C18.3333 13.189 18.8557 12.6667 19.5 12.6667C20.1443 12.6667 20.6667 13.189 20.6667 13.8333V19.6667C20.6667 20.9553 19.622 22 18.3333 22H4.33333C3.04467 22 2 20.9553 2 19.6667V5.66667Z" fill="#6E916B"/>
<path fill-rule="evenodd" clip-rule="evenodd" d="M18.1061 3.33561L8.87581 12.6097L9 15L11.3565 15.0787L20.5868 5.80462L18.1061 3.33561Z" fill="#F2B062"/>
</svg>
