<svg width="24" height="24" viewBox="0 0 24 24" fill="none" xmlns="http://www.w3.org/2000/svg">
<g clip-path="url(#clip0_4303_13281)">
<path d="M10.1111 11.2222C10.1111 10.7333 10.5111 10.3333 11 10.3333C11.4889 10.3333 11.8889 10.7333 11.8889 11.2222V17.4444H10.1111V11.2222ZM18.1111 13.8889C17.6222 13.8889 17.2222 14.2889 17.2222 14.7778V19.2222H4.77778V6.77778H9.22222C9.71111 6.77778 10.1111 6.37778 10.1111 5.88889C10.1111 5.4 9.71111 5 9.22222 5H4.77778C3.8 5 3 5.8 3 6.77778V19.2222C3 20.2 3.8 21 4.77778 21H17.2222C18.2 21 19 20.2 19 19.2222V14.7778C19 14.2889 18.6 13.8889 18.1111 13.8889ZM14.5556 13.8889C14.0667 13.8889 13.6667 14.2889 13.6667 14.7778V17.4444H15.4444V14.7778C15.4444 14.2889 15.0444 13.8889 14.5556 13.8889ZM6.55556 13V17.4444H8.33333V13C8.33333 12.5111 7.93333 12.1111 7.44444 12.1111C6.95556 12.1111 6.55556 12.5111 6.55556 13Z" fill="#91B18E"/>
<path d="M17 6H19C19.55 6 20 6.45 20 7C20 7.55 19.55 8 19 8H17V10C17 10.55 16.55 11 16 11C15.45 11 15 10.55 15 10V8H13C12.45 8 12 7.55 12 7C12 6.45 12.45 6 13 6H15V4C15 3.45 15.45 3 16 3C16.55 3 17 3.45 17 4V6Z" fill="#F2B062"/>
</g>
<defs>
<clipPath id="clip0_4303_13281">
<rect width="24" height="24" fill="white"/>
</clipPath>
</defs>
</svg>
