<svg width="25" height="24" viewBox="0 0 25 24" fill="none" xmlns="http://www.w3.org/2000/svg">
<path d="M13.3781 15.0142C13.5269 14.6451 13.4312 14.2248 13.1337 13.9377L10.9131 11.8259L10.945 11.7951C12.7937 9.80627 14.1112 7.52013 14.8869 5.10071H16.9481C17.5219 5.10071 18 4.63938 18 4.08578V4.06528C18 3.51168 17.5219 3.05035 16.9481 3.05035H10.5625V2.02518C10.5625 1.46133 10.0844 1 9.5 1C8.91563 1 8.4375 1.46133 8.4375 2.02518V3.05035H2.05187C1.47812 3.05035 1 3.51168 1 4.06528C1 4.62913 1.47812 5.0802 2.05187 5.0802H12.8681C12.1562 7.06905 11.03 8.94512 9.5 10.5854C8.63938 9.673 7.91687 8.67858 7.31125 7.6329C7.14125 7.33559 6.83312 7.15106 6.4825 7.15106C5.74937 7.15106 5.28187 7.91995 5.64313 8.53505C6.3125 9.6935 7.13063 10.8007 8.08687 11.8259L3.44375 16.2444C3.01875 16.6442 3.01875 17.3003 3.44375 17.7001C3.85812 18.1 4.5275 18.1 4.9525 17.7001L9.5 13.3021L11.6463 15.373C12.1881 15.8958 13.1125 15.701 13.3781 15.0142Z" fill="#91B18E"/>
<path d="M19.4804 9C18.8298 9 18.2442 9.40083 18.0165 10.0183C17.7888 10.6358 14.0368 20.635 14.0368 20.635C13.7766 21.2958 14.9803 22 14.9803 22C14.9803 22 15.7827 21.74 15.9345 21.3392L16.8996 18.75H22.0504L23.0264 21.3392C23.1782 21.7292 23.5577 22 23.9806 22C24.6855 22 25.1843 21.2958 24.9349 20.635L20.9552 10.0183C20.7166 9.40083 20.1311 9 19.4804 9ZM17.7237 16.5833C18.4098 14.7514 19.4804 11.8925 19.4804 11.8925L21.2371 16.5833H17.7237Z" fill="#F2B062"/>
</svg>
