<svg width="24" height="24" viewBox="0 0 24 24" fill="none" xmlns="http://www.w3.org/2000/svg">
<path d="M15.0001 8C15.0001 9.65685 13.6569 11 12.0001 11C10.3432 11 9.00008 9.65685 9.00008 8C9.00008 6.34315 10.3432 5 12.0001 5C13.6569 5 15.0001 6.34315 15.0001 8Z" stroke="#91B18E" stroke-width="2"/>
<path d="M14.0001 14.2845C13.3745 14.1003 12.7013 14 12.0001 14C8.68637 14 6.00008 16.2386 6.00008 19H14.0001" stroke="#91B18E" stroke-width="2" stroke-linejoin="round"/>
<circle cx="17.0001" cy="16" r="5" fill="#F5F5F5"/>
<path d="M20.125 16C20.125 15.8167 20.1 15.65 20.075 15.475L21.025 14.6333L20.1917 13.1917L18.9833 13.6C18.7167 13.375 18.4167 13.2 18.0833 13.075L17.8333 11.8333H16.1667L15.9167 13.075C15.5833 13.2 15.2833 13.375 15.0167 13.6L13.8083 13.1917L12.975 14.6333L13.925 15.475C13.9 15.65 13.875 15.8167 13.875 16C13.875 16.1833 13.9 16.35 13.925 16.525L12.975 17.3667L13.8083 18.8083L15.0167 18.4C15.2833 18.625 15.5833 18.8 15.9167 18.925L16.1667 20.1667H17.8333L18.0833 18.925C18.4167 18.8 18.7167 18.625 18.9833 18.4L20.1917 18.8083L21.025 17.3667L20.075 16.525C20.1 16.35 20.125 16.1833 20.125 16ZM17 17.6667C16.0833 17.6667 15.3333 16.9167 15.3333 16C15.3333 15.0833 16.0833 14.3333 17 14.3333C17.9167 14.3333 18.6667 15.0833 18.6667 16C18.6667 16.9167 17.9167 17.6667 17 17.6667Z" fill="#F2B062"/>
</svg>
