<svg width="76" height="76" viewBox="0 0 76 76" fill="none" xmlns="http://www.w3.org/2000/svg">
<path d="M57.1584 67.4182C55.9234 68.6532 53.9284 68.6532 52.6934 67.4182L45.98 60.7048C44.745 59.4698 44.745 57.4748 45.98 56.2398C47.215 55.0048 49.21 55.0048 50.445 56.2398L54.91 60.7048L66.12 49.4948C67.355 48.2598 69.35 48.2598 70.585 49.4948C71.82 50.7298 71.82 52.7248 70.585 53.9598L57.1584 67.4182ZM38.2534 63.3332H12.6667C9.18337 63.3332 6.33337 60.4832 6.33337 56.9998V18.9998C6.33337 15.5165 9.18337 12.6665 12.6667 12.6665H63.3334C66.8167 12.6665 69.6667 15.5165 69.6667 18.9998V40.1532C66.785 38.7915 63.5867 37.9998 60.1667 37.9998C47.9117 37.9998 38 47.9115 38 60.1665C38 61.2432 38.095 62.2882 38.2534 63.3332ZM36.3217 40.1215C37.335 40.7548 38.665 40.7548 39.6784 40.1215L62.0667 26.1248C62.8584 25.6182 63.3334 24.7632 63.3334 23.8448C63.3334 21.7232 61.0217 20.4565 59.2167 21.5648L38 34.8332L16.7834 21.5648C14.9784 20.4565 12.6667 21.7232 12.6667 23.8448C12.6667 24.7632 13.1417 25.6182 13.9334 26.1248L36.3217 40.1215Z" fill="#91B18E"/>
</svg>
