<svg width="16" height="14" viewBox="0 0 16 14" fill="none" xmlns="http://www.w3.org/2000/svg">
<path d="M0.5 4.3125C0.5 4.58864 0.723858 4.8125 1 4.8125C1.27614 4.8125 1.5 4.58864 1.5 4.3125H0.5ZM1 1.125V0.625H0.5V1.125H1ZM3.625 1.625C3.90114 1.625 4.125 1.40114 4.125 1.125C4.125 0.848858 3.90114 0.625 3.625 0.625V1.625ZM3.625 13.3125C3.90114 13.3125 4.125 13.0886 4.125 12.8125C4.125 12.5364 3.90114 12.3125 3.625 12.3125V13.3125ZM1 12.8125H0.5V13.3125H1V12.8125ZM1.5 9.625C1.5 9.34886 1.27614 9.125 1 9.125C0.723858 9.125 0.5 9.34886 0.5 9.625H1.5ZM12.375 0.625C12.0989 0.625 11.875 0.848858 11.875 1.125C11.875 1.40114 12.0989 1.625 12.375 1.625V0.625ZM15 1.125H15.5V0.625H15V1.125ZM14.5 4.3125C14.5 4.58864 14.7239 4.8125 15 4.8125C15.2761 4.8125 15.5 4.58864 15.5 4.3125H14.5ZM15.5 9.625C15.5 9.34886 15.2761 9.125 15 9.125C14.7239 9.125 14.5 9.34886 14.5 9.625H15.5ZM15 12.8125V13.3125H15.5V12.8125H15ZM12.375 12.3125C12.0989 12.3125 11.875 12.5364 11.875 12.8125C11.875 13.0886 12.0989 13.3125 12.375 13.3125V12.3125ZM2.25 3.25V10.6875H3.25V3.25H2.25ZM5.75 3.25V7.5H6.75V3.25H5.75ZM12.75 3.25V8.5625H13.75V3.25H12.75ZM9.25 8.5625V10.6875H10.25V8.5625H9.25ZM5.75 8.5625V10.6875H6.75V8.5625H5.75ZM12.75 9.625V10.6875H13.75V9.625H12.75ZM9.25 3.25V6.4375H10.25V3.25H9.25ZM4 3.25V10.6875H5V3.25H4ZM7.5 3.25V10.6875H8.5V3.25H7.5ZM11 3.25V10.6875H12V3.25H11ZM1.5 4.3125V1.125H0.5V4.3125H1.5ZM1 1.625H3.625V0.625H1V1.625ZM3.625 12.3125H1V13.3125H3.625V12.3125ZM1.5 12.8125V9.625H0.5V12.8125H1.5ZM12.375 1.625H15V0.625H12.375V1.625ZM14.5 1.125V4.3125H15.5V1.125H14.5ZM14.5 9.625V12.8125H15.5V9.625H14.5ZM15 12.3125H12.375V13.3125H15V12.3125Z" fill="#6D6F7E"/>
</svg>
